<?xml version="1.0" encoding="UTF-8"?>
<svg version="1.1" xmlns="http://www.w3.org/2000/svg" width="512" height="512">
<path d="M0 0 C168.96 0 337.92 0 512 0 C512 168.96 512 337.92 512 512 C343.04 512 174.08 512 0 512 C0 343.04 0 174.08 0 0 Z " fill="#66C4D3" transform="translate(0,0)"/>
<path d="M0 0 C1.3448943 0.7164421 2.68995026 1.43258081 4.03515625 2.1484375 C25.64307896 13.81280016 46.51051676 29.84633793 62 49 C62.88626324 50.05116547 63.77303078 51.10190585 64.66015625 52.15234375 C101.9805963 96.91968194 119.00885283 154.2377172 114.76855469 212.16162109 C110.26346081 260.14962638 89.5629919 305.97852566 57.2421875 341.546875 C55.90033067 342.99830089 55.90033067 342.99830089 55 345 C55.72832031 345.28875 56.45664062 345.5775 57.20703125 345.875 C58.92022981 346.56507159 60.62763203 347.27004 62.32421875 348 C63.10410156 348.33 63.88398438 348.66 64.6875 349 C65.45449219 349.33 66.22148437 349.66 67.01171875 350 C77.82475583 353.61848038 88.78085386 353.39828835 100.0625 353.5625 C102.76696956 353.60645754 105.47132211 353.65302503 108.17564392 353.70530701 C109.84935051 353.73724281 111.52316226 353.76413959 113.19703674 353.78553772 C118.88811099 353.88811099 118.88811099 353.88811099 120 355 C120.09952293 357.14200324 120.12799679 359.28732705 120.12939453 361.43164062 C120.13202301 362.43894478 120.13202301 362.43894478 120.13470459 363.46659851 C120.1391223 365.69650828 120.13618542 367.92633936 120.1328125 370.15625 C120.13348556 371.69942236 120.13445561 373.24259461 120.13571167 374.7857666 C120.13718853 378.0240174 120.13503447 381.26224067 120.13037109 384.50048828 C120.1246738 388.66042523 120.12795287 392.82029766 120.13394356 396.98023224 C120.13754949 400.16799408 120.13641044 403.35574051 120.13381577 406.54350281 C120.13314658 408.07777412 120.13397461 409.61204682 120.13629532 411.14631653 C120.13882238 413.28703541 120.13498054 415.42764842 120.12939453 417.56835938 C120.12820114 419.39917053 120.12820114 419.39917053 120.12698364 421.26696777 C120 424 120 424 119 425 C115.98839929 425.11396695 113.00070303 425.16420843 109.98828125 425.16796875 C109.0684697 425.17129715 108.14865814 425.17462555 107.20097351 425.17805481 C105.24132793 425.18313426 103.28167364 425.18546282 101.32202148 425.18530273 C98.37012628 425.18745793 95.41862426 425.20551413 92.46679688 425.22460938 C82.11174171 425.25593862 72.20133265 424.94035978 62 423 C60.89628052 422.80482788 60.89628052 422.80482788 59.77026367 422.60571289 C32.87994134 417.51387014 9.26716779 402.74817936 -9.6875 383.5 C-10.48994141 382.69691406 -11.29238281 381.89382813 -12.11914062 381.06640625 C-16.33736311 376.81719274 -20.39264125 372.48391125 -24.29956055 367.94775391 C-27.29092397 364.52132212 -30.43319681 361.23752773 -33.5625 357.9375 C-34.97158842 356.4455337 -36.38043788 354.95334169 -37.7890625 353.4609375 C-38.84335449 352.34477051 -38.84335449 352.34477051 -39.91894531 351.20605469 C-61.75996297 328.05314108 -61.75996297 328.05314108 -69.375 318.625 C-73.05636689 314.07139288 -76.92774473 309.76417484 -80.91357422 305.48095703 C-84.69476753 301.39357285 -88.19682668 297.11965827 -91.6875 292.78125 C-94.1997101 289.75980812 -96.82400827 286.87558227 -99.5 284 C-102.9741715 280.26670522 -106.30068494 276.47629157 -109.5 272.5 C-113.61369353 267.39105804 -117.98524083 262.58051909 -122.44140625 257.7734375 C-124.51828512 255.52216423 -126.55588699 253.25100677 -128.5625 250.9375 C-138.6368823 239.31753235 -138.6368823 239.31753235 -150 229 C-150.89332031 228.26910156 -151.78664062 227.53820312 -152.70703125 226.78515625 C-168.55902037 214.29885813 -185.71691129 209.37657283 -205.62817383 209.4699707 C-207.24436773 209.46285455 -208.8605547 209.45398318 -210.47673035 209.44351196 C-214.81889026 209.4201272 -219.16074726 209.42060442 -223.50295472 209.42542672 C-228.05888634 209.42602404 -232.61470072 209.40327494 -237.170578 209.38285828 C-245.77854883 209.34759361 -254.38643544 209.33145493 -262.9944703 209.3230831 C-275.66068751 209.31006261 -288.32683592 209.27185482 -300.99298382 209.22898388 C-301.92112811 209.22584519 -302.84927241 209.22270651 -303.80554229 209.21947271 C-305.65499227 209.21319363 -307.50444202 209.20685009 -309.35389155 209.20044011 C-314.77612399 209.18235304 -320.19831477 209.1712635 -325.62057459 209.16614306 C-328.97811201 209.16232434 -332.33563413 209.15471809 -335.69316292 209.1463356 C-337.25532041 209.1433646 -338.81748229 209.14214189 -340.37964249 209.14274788 C-342.50242475 209.14341012 -344.62510959 209.13809969 -346.74787903 209.13130188 C-347.93816617 209.1300446 -349.12845331 209.12878733 -350.35480976 209.12749195 C-353 209 -353 209 -354 208 C-354.09952293 205.85799676 -354.12799679 203.71267295 -354.12939453 201.56835938 C-354.13114685 200.89682327 -354.13289917 200.22528717 -354.13470459 199.53340149 C-354.1391223 197.30349172 -354.13618542 195.07366064 -354.1328125 192.84375 C-354.13348556 191.30057764 -354.13445561 189.75740539 -354.13571167 188.2142334 C-354.13718853 184.9759826 -354.13503447 181.73775933 -354.13037109 178.49951172 C-354.1246738 174.33957477 -354.12795287 170.17970234 -354.13394356 166.01976776 C-354.13754949 162.83200592 -354.13641044 159.64425949 -354.13381577 156.45649719 C-354.13314658 154.92222588 -354.13397461 153.38795318 -354.13629532 151.85368347 C-354.13882238 149.71296459 -354.13498054 147.57235158 -354.12939453 145.43164062 C-354.12859894 144.21109985 -354.12780334 142.99055908 -354.12698364 141.73303223 C-354 139 -354 139 -353 138 C-351.40389018 137.90666295 -349.80366572 137.88254628 -348.20483398 137.88647461 C-347.18385117 137.88655014 -346.16286835 137.88662567 -345.11094666 137.88670349 C-344.0005452 137.89186478 -342.89014374 137.89702606 -341.74609375 137.90234375 C-340.05021873 137.90446617 -340.05021873 137.90446617 -338.32008362 137.90663147 C-334.69252935 137.91224981 -331.06503576 137.92480542 -327.4375 137.9375 C-324.98502693 137.94251264 -322.5325529 137.94707595 -320.08007812 137.95117188 C-314.05336455 137.9622252 -308.02668661 137.97898116 -302 138 C-301.87370712 137.33631409 -301.74741425 136.67262817 -301.61729431 135.98883057 C-295.36242645 103.80079701 -277.29233985 73.51518293 -256 49 C-255.29858887 48.18692383 -255.29858887 48.18692383 -254.58300781 47.35742188 C-238.97237333 29.39788703 -220.78322213 14.56839619 -200 3 C-199.26910156 2.59007813 -198.53820312 2.18015625 -197.78515625 1.7578125 C-176.02910894 -10.34926273 -153.54458369 -17.97629776 -129 -22 C-127.906875 -22.20625 -126.81375 -22.4125 -125.6875 -22.625 C-83.47383242 -29.66061126 -37.27425331 -20.44859482 0 0 Z " fill="#FEFEFE" transform="translate(369,46)"/>
<path d="M0 0 C0.63679687 0.51304687 1.27359375 1.02609375 1.9296875 1.5546875 C6.47795876 5.2943772 10.26096416 9.46078139 14 14 C14.84820312 15.010625 15.69640625 16.02125 16.5703125 17.0625 C42.24501977 48.23246373 51.94219241 87.17933684 48.64453125 127.0546875 C45.18787806 158.72396845 30.50149652 187.02440561 9 210 C3.69891473 205.82680521 -0.34855467 201.26150792 -4.546875 195.9921875 C-7.09482922 192.88433251 -9.76005405 189.93701642 -12.5 187 C-16.76979255 182.41299756 -20.75762966 177.66551742 -24.6875 172.78125 C-27.19971133 169.75980664 -29.82402457 166.87559922 -32.5 164 C-36.7895776 159.38998361 -40.80410897 154.62216764 -44.75390625 149.71484375 C-47.88755422 145.92721707 -51.22492151 142.34144606 -54.5546875 138.7265625 C-56.8440938 136.1738379 -58.99237872 133.55902146 -61.125 130.875 C-67.62645678 122.83704373 -74.83568231 115.44391766 -82 108 C-82.61601074 107.35530762 -83.23202148 106.71061523 -83.86669922 106.04638672 C-102.69462143 86.40500766 -124.53286708 71.09135223 -150.375 62.1875 C-151.55751343 61.77056885 -151.55751343 61.77056885 -152.76391602 61.34521484 C-168.71754895 56.11488083 -184.99186709 55.50744144 -201.625 55.3125 C-203.61460422 55.27922088 -205.60418842 55.24472207 -207.59375 55.20898438 C-212.39571986 55.12532023 -217.19765393 55.05795604 -222 55 C-221.54416193 53.58126522 -221.08379316 52.16398576 -220.62158203 50.74731445 C-220.3657132 49.9579097 -220.10984436 49.16850494 -219.84622192 48.35517883 C-218.55169735 44.75229786 -216.78250055 41.4973297 -214.875 38.1875 C-214.48248047 37.50026855 -214.08996094 36.81303711 -213.68554688 36.10498047 C-207.659533 25.76608984 -200.21035515 16.68591235 -192 8 C-191.25363281 7.18917969 -190.50726563 6.37835938 -189.73828125 5.54296875 C-138.85204286 -47.86655419 -54.60206466 -45.47001203 0 0 Z " fill="#66C4D3" transform="translate(364,129)"/>
<path d="M0 0 C1.03196503 -0.01248528 1.03196503 -0.01248528 2.08477783 -0.02522278 C4.36459977 -0.04936702 6.64413594 -0.05809969 8.92407227 -0.06469727 C10.50586536 -0.07365964 12.08765756 -0.08278141 13.66944885 -0.09205627 C16.98749861 -0.10856041 20.30544728 -0.11624906 23.62353516 -0.11914062 C27.87891427 -0.12452873 32.13334599 -0.16221892 36.3884573 -0.20788479 C39.65610743 -0.23760096 42.92352782 -0.24486296 46.19130135 -0.24586678 C47.76024787 -0.25007931 49.32919444 -0.26255503 50.89800835 -0.28338432 C53.09157219 -0.3101916 55.28291948 -0.30550834 57.4765625 -0.29296875 C58.72517563 -0.2980394 59.97378876 -0.30311005 61.26023865 -0.30833435 C64.30297852 0.30639648 64.30297852 0.30639648 66.16662598 2.72473145 C66.72912048 4.00265564 66.72912048 4.00265564 67.30297852 5.30639648 C67.80196655 6.24986938 67.80196655 6.24986938 68.31103516 7.21240234 C68.60872803 7.80931885 68.9064209 8.40623535 69.21313477 9.02124023 C76.76072976 23.89236651 85.74977536 36.31424185 97.30297852 48.30639648 C97.94493164 49.01151367 98.58688477 49.71663086 99.24829102 50.44311523 C117.31198114 69.71887115 144.4813148 83.27846165 170.54272461 86.6262207 C177.04250082 87.63473739 180.13921483 90.3298819 184.30297852 95.30639648 C184.92946289 95.9934668 185.55594727 96.68053711 186.20141602 97.38842773 C186.68868164 97.95948242 187.17594727 98.53053711 187.67797852 99.11889648 C191.81566424 103.91233151 196.05996383 108.60622196 200.30297852 113.30639648 C201.80326531 114.972805 203.30326724 116.63947001 204.80297852 118.30639648 C205.54547852 119.13139648 206.28797852 119.95639648 207.05297852 120.80639648 C222.80297852 138.30639648 222.80297852 138.30639648 225.01391602 140.78686523 C226.61323249 142.54720504 228.24660017 144.27693828 229.90454102 145.98217773 C230.73727539 146.85229492 231.57000977 147.72241211 232.42797852 148.61889648 C233.19368164 149.3987793 233.95938477 150.17866211 234.74829102 150.98217773 C236.30297852 153.30639648 236.30297852 153.30639648 236.04516602 156.09936523 C235.80024414 156.82768555 235.55532227 157.55600586 235.30297852 158.30639648 C201.22840483 166.97992433 163.35217659 163.45416688 130.30297852 152.30639648 C129.58754883 152.06663086 128.87211914 151.82686523 128.13500977 151.57983398 C100.3475311 142.09142664 75.1878396 126.85667405 53.84985352 106.70092773 C51.78032316 104.75518831 49.68428722 102.9195669 47.49047852 101.11889648 C43.66505768 97.8728062 40.52550235 94.13805592 37.30297852 90.30639648 C36.22790039 89.09790039 36.22790039 89.09790039 35.13110352 87.86499023 C18.36007762 68.60023337 5.92441342 46.20496884 -3.32202148 22.49389648 C-3.74837891 21.40246338 -4.17473633 20.31103027 -4.61401367 19.18652344 C-6.73593537 13.54453833 -8.51414755 8.36233704 -8.69702148 2.30639648 C-5.86243364 -0.52819136 -3.97195392 0.03386777 0 0 Z " fill="#FEFEFE" transform="translate(76.697021484375,292.693603515625)"/>
</svg>
